<svg xmlns="http://www.w3.org/2000/svg" xmlns:xlink="http://www.w3.org/1999/xlink" width="500" zoomAndPan="magnify" viewBox="0 0 375 374.999991" height="500" preserveAspectRatio="xMidYMid meet" version="1.0"><defs><g><g id="id1"/></g></defs><path fill="rgb(39.219666%, 49.798584%, 97.24884%)" d="M 369.863281 5.125 L 369.863281 0 L 375 5.125 L 369.863281 5.125 " fill-opacity="1" fill-rule="nonzero"/><path fill="rgb(19.60907%, 34.118652%, 100%)" d="M 369.863281 60.046875 L 369.863281 0 L 344.015625 0 L 344.015625 60.046875 L 344.027344 60.046875 L 356.945312 66.75 L 369.863281 60.046875 " fill-opacity="1" fill-rule="nonzero"/><g fill="rgb(100%, 100%, 100%)" fill-opacity="1"><g transform="translate(353.197039, 10.992701)"><g><path d="M 4.921875 6.015625 C 4.117188 6.015625 3.492188 5.773438 3.046875 5.296875 C 2.609375 4.828125 2.390625 4.15625 2.390625 3.28125 L 2.390625 2.734375 L 0 2.734375 L 0 0.78125 L 7.21875 0.78125 L 7.21875 3.28125 C 7.21875 4.1875 7.015625 4.867188 6.609375 5.328125 C 6.210938 5.785156 5.648438 6.015625 4.921875 6.015625 Z M 3.984375 2.734375 L 3.984375 3.078125 C 3.984375 3.378906 4.066406 3.613281 4.234375 3.78125 C 4.398438 3.957031 4.625 4.046875 4.90625 4.046875 C 5.394531 4.046875 5.640625 3.773438 5.640625 3.234375 L 5.640625 2.734375 Z M 3.984375 2.734375 "/></g></g></g><g fill="rgb(100%, 100%, 100%)" fill-opacity="1"><g transform="translate(353.197039, 17.378467)"><g><path d="M 2.8125 6 C 1.894531 6 1.179688 5.753906 0.671875 5.265625 C 0.160156 4.773438 -0.09375 4.085938 -0.09375 3.203125 C -0.09375 2.359375 0.164062 1.679688 0.6875 1.171875 C 1.207031 0.671875 1.914062 0.421875 2.8125 0.421875 C 3.71875 0.421875 4.421875 0.664062 4.921875 1.15625 C 5.429688 1.65625 5.6875 2.347656 5.6875 3.234375 C 5.6875 3.785156 5.566406 4.269531 5.328125 4.6875 C 5.097656 5.113281 4.765625 5.4375 4.328125 5.65625 C 3.898438 5.882812 3.394531 6 2.8125 6 Z M 2.8125 2.390625 C 2.332031 2.390625 1.960938 2.453125 1.703125 2.578125 C 1.453125 2.703125 1.328125 2.914062 1.328125 3.21875 C 1.328125 3.519531 1.453125 3.734375 1.703125 3.859375 C 1.960938 3.984375 2.332031 4.046875 2.8125 4.046875 C 3.289062 4.046875 3.648438 3.984375 3.890625 3.859375 C 4.128906 3.734375 4.25 3.519531 4.25 3.21875 C 4.25 2.914062 4.128906 2.703125 3.890625 2.578125 C 3.648438 2.453125 3.289062 2.390625 2.8125 2.390625 Z M 2.8125 2.390625 "/></g></g></g><g fill="rgb(100%, 100%, 100%)" fill-opacity="1"><g transform="translate(353.197039, 23.818516)"><g><path d="M -0.09375 4.015625 C -0.09375 3.734375 -0.046875 3.476562 0.046875 3.25 C 0.140625 3.03125 0.304688 2.8125 0.546875 2.59375 L 0.546875 2.5 C 0.148438 2.5625 -0.09375 2.59375 -0.1875 2.59375 L -2.421875 2.59375 L -2.421875 0.671875 L 5.59375 0.671875 L 5.59375 2.234375 L 4.875 2.5 L 4.875 2.59375 C 5.414062 2.957031 5.6875 3.453125 5.6875 4.078125 C 5.6875 4.703125 5.429688 5.1875 4.921875 5.53125 C 4.410156 5.882812 3.707031 6.0625 2.8125 6.0625 C 1.90625 6.0625 1.191406 5.878906 0.671875 5.515625 C 0.160156 5.148438 -0.09375 4.648438 -0.09375 4.015625 Z M 4.171875 3.375 C 4.171875 3.09375 4.066406 2.894531 3.859375 2.78125 C 3.660156 2.664062 3.363281 2.601562 2.96875 2.59375 L 2.8125 2.59375 C 2.332031 2.59375 1.984375 2.65625 1.765625 2.78125 C 1.554688 2.914062 1.453125 3.117188 1.453125 3.390625 C 1.453125 3.640625 1.554688 3.820312 1.765625 3.9375 C 1.984375 4.050781 2.335938 4.109375 2.828125 4.109375 C 3.304688 4.109375 3.648438 4.050781 3.859375 3.9375 C 4.066406 3.820312 4.171875 3.632812 4.171875 3.375 Z M 4.171875 3.375 "/></g></g></g><g fill="rgb(100%, 100%, 100%)" fill-opacity="1"><g transform="translate(353.197039, 30.317785)"><g><path d="M 0 4.65625 L 0.703125 4.40625 L 0.703125 4.296875 C 0.441406 4.128906 0.242188 3.898438 0.109375 3.609375 C -0.0234375 3.328125 -0.09375 2.992188 -0.09375 2.609375 C -0.09375 1.992188 0.0820312 1.515625 0.4375 1.171875 C 0.789062 0.828125 1.296875 0.65625 1.953125 0.65625 L 5.59375 0.65625 L 5.59375 2.59375 L 2.53125 2.59375 C 2.164062 2.59375 1.890625 2.640625 1.703125 2.734375 C 1.515625 2.835938 1.421875 3.007812 1.421875 3.25 C 1.421875 3.582031 1.550781 3.816406 1.8125 3.953125 C 2.082031 4.097656 2.523438 4.171875 3.140625 4.171875 L 5.59375 4.171875 L 5.59375 6.109375 L 0 6.109375 Z M 0 4.65625 "/></g></g></g><g fill="rgb(100%, 100%, 100%)" fill-opacity="1"><g transform="translate(353.197039, 37.088473)"><g><path d="M 0 2.59375 L 0 0.671875 L 7.6875 0.671875 L 7.6875 2.59375 Z M 0 2.59375 "/></g></g></g><g fill="rgb(100%, 100%, 100%)" fill-opacity="1"><g transform="translate(353.197039, 40.355379)"><g><path d="M 0 4.3125 L 0.734375 3.9375 L 0.734375 3.90625 C 0.410156 3.644531 0.191406 3.378906 0.078125 3.109375 C -0.0351562 2.835938 -0.09375 2.488281 -0.09375 2.0625 C -0.09375 1.539062 0.0625 1.125 0.375 0.8125 C 0.6875 0.507812 1.128906 0.359375 1.703125 0.359375 C 2.296875 0.359375 2.738281 0.566406 3.03125 0.984375 C 3.320312 1.398438 3.488281 2 3.53125 2.78125 L 3.5625 3.71875 L 3.640625 3.71875 C 4.097656 3.71875 4.328125 3.492188 4.328125 3.046875 C 4.328125 2.628906 4.191406 2.109375 3.921875 1.484375 L 5.1875 0.921875 C 5.519531 1.578125 5.6875 2.398438 5.6875 3.390625 C 5.6875 4.109375 5.507812 4.664062 5.15625 5.0625 C 4.800781 5.457031 4.304688 5.65625 3.671875 5.65625 L 0 5.65625 Z M 1.265625 2.875 C 1.265625 3.113281 1.335938 3.316406 1.484375 3.484375 C 1.628906 3.648438 1.820312 3.734375 2.0625 3.734375 L 2.5 3.734375 L 2.484375 3.28125 C 2.453125 2.644531 2.21875 2.328125 1.78125 2.328125 C 1.4375 2.328125 1.265625 2.507812 1.265625 2.875 Z M 1.265625 2.875 "/></g></g></g><g fill="rgb(100%, 100%, 100%)" fill-opacity="1"><g transform="translate(353.197039, 46.652316)"><g><path d="M 5.6875 4.046875 C 5.6875 4.210938 5.675781 4.367188 5.65625 4.515625 L 5.625 4.625 L 3.8125 4.453125 C 3.851562 4.296875 3.875 4.078125 3.875 3.796875 C 3.875 3.378906 3.773438 3.070312 3.578125 2.875 C 3.390625 2.6875 3.113281 2.59375 2.75 2.59375 L 0 2.59375 L 0 0.671875 L 5.59375 0.671875 L 5.59375 2.109375 L 4.703125 2.40625 L 4.703125 2.5 C 4.992188 2.65625 5.226562 2.878906 5.40625 3.171875 C 5.59375 3.460938 5.6875 3.753906 5.6875 4.046875 Z M 5.6875 4.046875 "/></g></g></g></svg>